<mxfile host="app.diagrams.net" modified="2024-03-12T11:18:15.800Z" agent="Mozilla/5.0 (Windows NT 10.0; Win64; x64) AppleWebKit/537.36 (KHTML, like Gecko) Chrome/114.0.0.0 Safari/537.36" version="21.5.0" etag="m6EyHi0gJT18VYR-vw1b" type="github">
  <diagram name="Page-1" id="Mu1MUeHtanDo3Cw2S8Uz">
    <mxGraphModel>
      <root>
        <mxCell id="0" />
        <mxCell id="1" parent="0" />
      </root>
    </mxGraphModel>
  </diagram>
</mxfile>
